<?xml version="1.0" encoding="utf-8"?>
<!-- Generator: Adobe Illustrator 24.2.0, SVG Export Plug-In . SVG Version: 6.00 Build 0)  -->
<svg version="1.1" id="pi-unternehmen-online-48" xmlns="http://www.w3.org/2000/svg" xmlns:xlink="http://www.w3.org/1999/xlink"
	 x="0px" y="0px" viewBox="0 0 48 48" enable-background="new 0 0 48 48" xml:space="preserve">
<filter  id="drop-shadow1">
	<feGaussianBlur  in="SourceAlpha" stdDeviation="1"></feGaussianBlur>
	<feOffset  dx="1" dy="2" result="offsetblur"></feOffset>
	<feFlood  flood-color="#555B5D"></feFlood>
	<feComposite  in2="offsetblur" operator="in"></feComposite>
	<feComponentTransfer>
		<feFuncA  slope="0.5" type="linear"></feFuncA>
		<!--                slope is the opacity of the shadow                -->
	</feComponentTransfer>
</filter>
<g id="pi-unternehmen-online-48-schatten-pl" filter="url(#drop-shadow1)">
	<path fill="#FFFFFF" d="M45,3v40c0,1.105-0.895,2-2,2H18C9.163,45,2,37.837,2,29V3c0-1.105,0.895-2,2-2h39C44.105,1,45,1.895,45,3z
		"/>
</g>
<path id="pi-unternehmen-online-48-kontur-pl" fill="#414141" fill-opacity="0.6" d="M43,0H3C1.346,0,0,1.346,0,3v26
	c0,9.374,7.626,17,17,17h26c1.654,0,3-1.346,3-3V3C46,1.346,44.654,0,43,0L43,0z"/>
<g id="pi-unternehmen-online-48-farbe-pl">
	<linearGradient id="SVGID_1_" gradientUnits="userSpaceOnUse" x1="-1.112" y1="6.1217" x2="49.6732" y2="35.4425">
		<stop  offset="0.0035" style="stop-color:#F5F5F5"/>
		<stop  offset="1" style="stop-color:#E4E4E4"/>
	</linearGradient>
	<path fill="url(#SVGID_1_)" d="M45,3v40c0,1.105-0.895,2-2,2H17C8.163,45,1,37.837,1,29V3c0-1.105,0.895-2,2-2h40
		C44.105,1,45,1.895,45,3z"/>
</g>
<path id="pi-unternehmen-online-48-unternehmen-schatten" opacity="0.15" fill="#323232" d="M18,25V11h-1V9h-6v2h-1v32.371
	C12.117,44.404,14.486,45,17,45h26c1.104,0,2-0.895,2-2V25H18z"/>
<path id="pi-unternehmen-online-48-kontur-dunkel" fill="#555B5D" d="M14,22V8h-1V6H7v2H6v32.599c2.178,2.066,4.93,3.527,8,4.11
	v-0.007C14.972,44.892,15.972,45,17,45h26c1.104,0,2-0.895,2-2V22H14z"/>
<linearGradient id="pi-unternehmen-online-48-farbe-haus_1_" gradientUnits="userSpaceOnUse" x1="2.9901" y1="20.0684" x2="39.6098" y2="41.2108">
	<stop  offset="0.0035" style="stop-color:#FFFFFF"/>
	<stop  offset="0.9965" style="stop-color:#E4E3E2"/>
</linearGradient>
<path id="pi-unternehmen-online-48-farbe-haus" fill="url(#pi-unternehmen-online-48-farbe-haus_1_)" d="M14,26v18.748
	C14.973,44.908,15.973,45,17,45h26c1.104,0,2-0.776,2-1.734V26H14z"/>
<polygon id="pi-unternehmen-online-48-kontur-fenster-oben-links" fill="#4B6D8B" points="25,28 24,28 17,28 16,28 16,29 16,30 
	16,31 17,31 24,31 25,31 25,30 25,29 25,28 "/>
<polyline id="pi-unternehmen-online-48-fenster-oben-links-klein" fill="#ABD6F4" points="24,29 24,30 17,30 17,29 24,29 "/>
<polygon id="pi-unternehmen-online-48-kontur-fenster-unten-links" fill="#4B6D8B" points="25,32 24,32 17,32 16,32 16,33.1 
	16,41.9 16,43 17,43 24,43 25,43 25,41.9 25,33.1 25,32 "/>
<polygon id="pi-unternehmen-online-48-kontur-fenster-mitte-oben" fill="#4B6D8B" points="36,28 35,28 28,28 27,28 27,29 27,30 
	27,31 28,31 35,31 36,31 36,30 36,29 36,28 "/>
<polyline id="pi-unternehmen-online-48-farbe-fenster-mitte-oben" fill="#ABD6F4" points="35,29 35,30 28,30 28,29 35,29 "/>
<polygon id="pi-unternehmen-online-48-kontur-fenster-mitte" fill="#4B6D8B" points="36,32 35,32 28,32 27,32 27,33.1 27,41.9 
	27,43 28,43 35,43 36,43 36,41.9 36,33.1 36,32 "/>
<polygon id="pi-unternehmen-online-48-fenster-oben-rechts-klein" fill="#4B6D8B" points="45,28 44.222,28 38.778,28 38,28 38,29 
	38,30 38,31 38.778,31 44.222,31 45,31 45,30 45,29 45,28 "/>
<polyline id="pi-unternehmen-online-48-fenster-glas-oben" fill="#ABD6F4" points="45,29 45,30 39,30 39,29 45,29 "/>
<polygon id="pi-unternehmen-online-48-fenster-rechts" fill="#4B6D8B" points="45,32 44.222,32 38.778,32 38,32 38,33.1 38,41.9 
	38,43 38.778,43 44.222,43 45,43 45,41.9 45,33.1 45,32 "/>
<linearGradient id="pi-unternehmen-online-48-glas_1_" gradientUnits="userSpaceOnUse" x1="18.5515" y1="30.3128" x2="49.1404" y2="47.9734">
	<stop  offset="0" style="stop-color:#DBF1FB"/>
	<stop  offset="1" style="stop-color:#7DB5D3"/>
</linearGradient>
<path id="pi-unternehmen-online-48-glas" fill="url(#pi-unternehmen-online-48-glas_1_)" d="M24,33v9h-7v-9H24 M35,33h-7v9h7V33
	 M45,33h-6v9h6V33"/>
<g id="pi-unternehmen-online-48-streben-links">
	<polygon fill="#6997B6" points="24,37 21,37 21,33 20,33 20,37 17,37 17,38 20,38 20,42 21,42 21,38 24,38 	"/>
</g>
<g id="pi-unternehmen-online-48-streben-mitte">
	<polygon fill="#6997B6" points="35,37 32,37 32,33 31,33 31,37 28,37 28,38 31,38 31,42 32,42 32,38 35,38 	"/>
</g>
<g id="pi-unternehmen-online-48-streben-rechts">
	<polygon fill="#6997B6" points="45,37 43,37 43,33 42,33 42,37 39,37 39,38 42,38 42,42 43,42 43,38 45,38 	"/>
</g>
<linearGradient id="pi-unternehmen-online-48-dach_1_" gradientUnits="userSpaceOnUse" x1="13.547" y1="14.7895" x2="37.663" y2="28.7129">
	<stop  offset="0.0035" style="stop-color:#B5B5B5"/>
	<stop  offset="0.0805" style="stop-color:#AEAEAE"/>
	<stop  offset="0.4241" style="stop-color:#969696"/>
	<stop  offset="0.74" style="stop-color:#878787"/>
	<stop  offset="1" style="stop-color:#828282"/>
</linearGradient>
<polyline id="pi-unternehmen-online-48-dach" fill="url(#pi-unternehmen-online-48-dach_1_)" points="45,23 45,25 14,25 14,23 
	45,23 "/>
<linearGradient id="pi-unternehmen-online-48-schornstein_1_" gradientUnits="userSpaceOnUse" x1="7.6563" y1="25.7378" x2="12.2501" y2="25.7378">
	<stop  offset="0" style="stop-color:#ECECEC"/>
	<stop  offset="0.1985" style="stop-color:#FFFFFF"/>
	<stop  offset="0.9965" style="stop-color:#E4E3E2"/>
</linearGradient>
<path id="pi-unternehmen-online-48-schornstein" fill="url(#pi-unternehmen-online-48-schornstein_1_)" d="M12,7H8v2H7v32.479
	c1.739,1.395,3.776,2.423,6,2.996V9h-1V7z"/>
<g id="pi-unternehmen-online-48-spitze">
	<rect x="8" y="7" fill="#469900" width="4" height="1"/>
</g>
<g id="pi-unternehmen-online-48-gruen-vier">
	<linearGradient id="SVGID_2_" gradientUnits="userSpaceOnUse" x1="7" y1="13" x2="13" y2="13">
		<stop  offset="0" style="stop-color:#469900"/>
		<stop  offset="0.3191" style="stop-color:#99DC2E"/>
		<stop  offset="1" style="stop-color:#469900"/>
	</linearGradient>
	<rect x="7" y="12" fill="url(#SVGID_2_)" width="6" height="2"/>
</g>
<g id="pi-unternehmen-online-48-gruen-drei">
	<linearGradient id="SVGID_3_" gradientUnits="userSpaceOnUse" x1="7" y1="10" x2="13" y2="10">
		<stop  offset="0" style="stop-color:#469900"/>
		<stop  offset="0.3191" style="stop-color:#99DC2E"/>
		<stop  offset="1" style="stop-color:#469900"/>
	</linearGradient>
	<rect x="7" y="9" fill="url(#SVGID_3_)" width="6" height="2"/>
</g>
<g id="pi-unternehmen-online-48-gruen-zwei">
	<linearGradient id="SVGID_4_" gradientUnits="userSpaceOnUse" x1="7" y1="19" x2="13" y2="19">
		<stop  offset="0" style="stop-color:#469900"/>
		<stop  offset="0.3191" style="stop-color:#99DC2E"/>
		<stop  offset="1" style="stop-color:#469900"/>
	</linearGradient>
	<rect x="7" y="18" fill="url(#SVGID_4_)" width="6" height="2"/>
</g>
<g id="pi-unternehmen-online-48-gruen-eins">
	<linearGradient id="SVGID_5_" gradientUnits="userSpaceOnUse" x1="7" y1="16" x2="13" y2="16">
		<stop  offset="0" style="stop-color:#469900"/>
		<stop  offset="0.3191" style="stop-color:#99DC2E"/>
		<stop  offset="1" style="stop-color:#469900"/>
	</linearGradient>
	<rect x="7" y="15" fill="url(#SVGID_5_)" width="6" height="2"/>
</g>
</svg>
