<?xml version="1.0" encoding="utf-8"?>
<!-- Generator: Adobe Illustrator 23.0.6, SVG Export Plug-In . SVG Version: 6.00 Build 0)  -->
<svg version="1.1" id="Ebene_1" xmlns="http://www.w3.org/2000/svg" xmlns:xlink="http://www.w3.org/1999/xlink" x="0px" y="0px"
	 width="138.9px" height="19.1px" viewBox="0 0 138.9 19.1" style="enable-background:new 0 0 138.9 19.1;" xml:space="preserve">
<style type="text/css">
	.st0{fill:#777777;}
	.st1{fill:none;stroke:#777777;stroke-width:1.3504;stroke-miterlimit:10;}
	.st2{fill:#E0101F;}
	.st3{fill:none;stroke:#E0101F;stroke-width:1.3504;stroke-miterlimit:10;}
</style>
<g>
	<g>
		<path class="st0" d="M30.9,10c0,1.1-0.6,1.7-1.9,1.7h-5.6v0.6c0,0.6,0.3,0.9,1,0.9h6.4v1.6h-6.6c-1.8,0-2.7-0.8-2.7-2.3V9.4
			c0-1.4,0.9-2.1,2.7-2.1H29c1.3,0,1.9,0.6,1.9,1.8V10z M28.2,10.4c0.5,0,0.8-0.3,0.8-0.8V9.5c0-0.5-0.3-0.8-0.8-0.8h-3.3
			c-0.2,0-0.4,0-0.6,0c-0.2,0-0.4,0-0.5,0.1c-0.1,0.1-0.2,0.1-0.3,0.3c-0.1,0.1-0.1,0.3-0.1,0.4v0.8H28.2z"/>
		<path class="st0" d="M36.8,8.8h-1.7v6.1h-1.8V8.8h-1.6V7.2h1.6V4.9h1.8v2.3h1.7V8.8z"/>
		<path class="st0" d="M47.7,12.4c0,1.7-1,2.5-3.1,2.5h-3.9c-2,0-3.1-0.8-3.1-2.5V9.8c0-1.7,1-2.5,3.1-2.5h3.9c2,0,3.1,0.8,3.1,2.5
			V12.4z M40.9,8.8c-0.3,0-0.5,0-0.6,0.1c-0.2,0-0.3,0.1-0.4,0.2c-0.1,0.1-0.2,0.2-0.2,0.4c0,0.1-0.1,0.3-0.1,0.5v2.2
			c0,0.4,0.1,0.7,0.3,0.9c0.2,0.2,0.5,0.2,1,0.2h3.6c0.5,0,0.9-0.1,1.1-0.3c0.2-0.2,0.3-0.5,0.3-0.9V9.9c0-0.4-0.1-0.7-0.3-0.9
			s-0.5-0.3-0.9-0.3H40.9z"/>
		<path class="st0" d="M59.2,14.8h-1.9V9.7c0-0.7-0.4-1-1.2-1h-5.1v6.1h-1.9V7.2h6.9c2,0,3.1,0.8,3.1,2.5V14.8z"/>
		<path class="st0" d="M70.7,12.3c0,1.7-1,2.5-3.1,2.5h-5.1v2.5h-1.9V9.8c0-1.7,1-2.5,3.1-2.5h3.9c2,0,3.1,0.8,3.1,2.5V12.3z
			 M63.9,8.8c-0.5,0-0.8,0.1-1,0.2c-0.2,0.1-0.3,0.4-0.3,0.8v3.5h4.9c0.4,0,0.8-0.1,1-0.2c0.2-0.1,0.3-0.4,0.3-0.8V9.8
			c0-0.7-0.4-1-1.2-1H63.9z"/>
		<path class="st0" d="M76.9,5.8h-1.7c-0.8,0-1.2,0.3-1.2,0.9v0.5h2.9v1.5H74v6.1h-1.9V6.9c0-1.7,0.9-2.5,2.7-2.5h2V5.8z"/>
		<path class="st0" d="M79.9,14.8H78V4.4h1.9V14.8z"/>
		<path class="st0" d="M90.8,10c0,1.1-0.6,1.7-1.9,1.7h-5.6v0.6c0,0.6,0.3,0.9,1,0.9h6.4v1.6H84c-1.8,0-2.7-0.8-2.7-2.3V9.4
			c0-1.4,0.9-2.1,2.7-2.1h4.8c1.3,0,1.9,0.6,1.9,1.8V10z M88.1,10.4c0.5,0,0.8-0.3,0.8-0.8V9.5c0-0.5-0.3-0.8-0.8-0.8h-3.3
			c-0.2,0-0.4,0-0.6,0c-0.2,0-0.4,0-0.5,0.1c-0.1,0.1-0.2,0.1-0.3,0.3c-0.1,0.1-0.1,0.3-0.1,0.4v0.8H88.1z"/>
		<path class="st0" d="M102.2,14.8c0,1.7-1,2.5-3.1,2.5h-6.5v-1.6H99c0.9,0,1.3-0.4,1.3-1.1v-0.8h-5.6c-1.6,0-2.5-0.7-2.5-2.1V9.3
			c0-1.4,1-2.1,3.1-2.1h3.9c2,0,3.1,0.7,3.1,2V14.8z M95.3,8.8c-0.8,0-1.2,0.3-1.2,0.9v1.6c0,0.6,0.4,0.9,1.1,0.9h5.2V9.6
			c0-0.6-0.4-0.9-1.2-0.9H95.3z"/>
		<path class="st0" d="M113.1,10c0,1.1-0.6,1.7-1.9,1.7h-5.6v0.6c0,0.6,0.3,0.9,1,0.9h6.4v1.6h-6.6c-1.8,0-2.7-0.8-2.7-2.3V9.4
			c0-1.4,0.9-2.1,2.7-2.1h4.8c1.3,0,1.9,0.6,1.9,1.8V10z M110.5,10.4c0.5,0,0.8-0.3,0.8-0.8V9.5c0-0.5-0.3-0.8-0.8-0.8h-3.3
			c-0.2,0-0.4,0-0.6,0c-0.2,0-0.4,0-0.5,0.1c-0.1,0.1-0.2,0.1-0.3,0.3c-0.1,0.1-0.1,0.3-0.1,0.4v0.8H110.5z"/>
		<path class="st0" d="M116.5,14.8h-1.9v-1.6h1.9V14.8z"/>
		<path class="st0" d="M127.7,12.3c0,1.7-1,2.5-3.1,2.5h-3.9c-2,0-3.1-0.8-3.1-2.5V9.8c0-1.7,1-2.5,3.1-2.5h5.1V4.4h1.9V12.3z
			 M121,8.8c-0.5,0-0.8,0.1-1,0.2c-0.2,0.1-0.4,0.4-0.4,0.8v2.5c0,0.4,0.1,0.6,0.4,0.8c0.2,0.1,0.6,0.2,1,0.2h3.5
			c0.5,0,0.8-0.1,1-0.2c0.2-0.1,0.3-0.4,0.3-0.8V8.8H121z"/>
		<path class="st0" d="M138.6,10c0,1.1-0.6,1.7-1.9,1.7h-5.6v0.6c0,0.6,0.3,0.9,1,0.9h6.4v1.6h-6.6c-1.8,0-2.7-0.8-2.7-2.3V9.4
			c0-1.4,0.9-2.1,2.7-2.1h4.8c1.3,0,1.9,0.6,1.9,1.8V10z M135.9,10.4c0.5,0,0.8-0.3,0.8-0.8V9.5c0-0.5-0.3-0.8-0.8-0.8h-3.3
			c-0.2,0-0.4,0-0.6,0c-0.2,0-0.4,0-0.5,0.1c-0.1,0.1-0.2,0.1-0.3,0.3c-0.1,0.1-0.1,0.3-0.1,0.4v0.8H135.9z"/>
	</g>
	<g>
		<path class="st0" d="M14.5,12.4c0,1.7-1,2.5-3.1,2.5H7.5c-2,0-3.1-0.8-3.1-2.5V4.5h1.9v2.9h5.1c2,0,3.1,0.8,3.1,2.5V12.4z
			 M6.4,8.9v3.5c0,0.4,0.1,0.6,0.3,0.8c0.2,0.1,0.6,0.2,1,0.2h3.5c0.4,0,0.8-0.1,1-0.2c0.2-0.1,0.4-0.4,0.4-0.8V9.8
			c0-0.7-0.4-1-1.2-1H6.4z"/>
	</g>
	<path class="st0" d="M1.4,3v13.2c0,0.4-0.3,0.7-0.7,0.7h0c-0.4,0-0.7-0.3-0.7-0.7L0,3c0-0.4,0.3-0.7,0.7-0.7h0C1,2.3,1.4,2.6,1.4,3
		z"/>
	<path class="st0" d="M15.7,19H3.1c-0.4,0-0.7-0.3-0.7-0.7v-0.1c0-0.4,0.3-0.7,0.7-0.7h12.6c0.4,0,0.7,0.3,0.7,0.7v0.1
		C16.3,18.7,16.1,19,15.7,19z"/>
	<path class="st1" d="M0.7,16.3c0,1.1,1.1,2,2.4,2"/>
	<path class="st2" d="M17.6,16.1V2.9c0-0.4,0.3-0.7,0.7-0.7h0c0.4,0,0.7,0.3,0.7,0.7v13.2c0,0.4-0.3,0.7-0.7,0.7h0
		C17.9,16.8,17.6,16.5,17.6,16.1z"/>
	<path class="st2" d="M3.3,0.1l12.6,0c0.4,0,0.7,0.3,0.7,0.7v0.1c0,0.4-0.3,0.7-0.7,0.7H3.3c-0.4,0-0.7-0.3-0.7-0.7V0.8
		C2.6,0.4,2.9,0.1,3.3,0.1z"/>
	<path class="st3" d="M15.9,0.8c1.3,0,2.4,0.9,2.4,2"/>
</g>
</svg>
