<?xml version="1.0" encoding="utf-8"?>
<!-- Generator: Adobe Illustrator 23.0.2, SVG Export Plug-In . SVG Version: 6.00 Build 0)  -->
<svg version="1.1" id="Ebene_1" xmlns="http://www.w3.org/2000/svg" xmlns:xlink="http://www.w3.org/1999/xlink" x="0px" y="0px"
	 viewBox="0 0 498.9 173.2" style="enable-background:new 0 0 498.9 173.2;" xml:space="preserve">
<style type="text/css">
	.st0{fill:#EEEEEE;}
	.st1{fill:#ad0600;}
</style>
<g>
	<g>
		<path class="st0" d="M98.5,65.5c-3.3,6.7-9.5,10.2-13.9,10.2c-6.2,0-5.3-4.7-4.1-8.5c2.4-8,6.1-19.9,7.9-25.9l-6.1-0.6l1.1-2.4
			h5.9c1.3-4,2.4-7.7,3.1-10.3c2.6-0.5,4.4-0.9,6.3-1.7c-0.8,1.8-2.7,7.4-4.2,12h9.7l-1.2,2.4l-9.4,0.6c-1.6,5-6.7,21.4-8.2,27.9
			c-0.5,1.9-0.3,3.3,1.7,3.3c4,0,8.4-5.3,10.3-9.6L98.5,65.5z"/>
		<path class="st0" d="M133.3,65.7c-4.3,6.7-11.4,10-17.6,10c-6.9,0-10.5-4.4-10.5-11.7c0-8.5,4-17.9,11-23.3
			c3.2-2.6,6.8-3.8,10.6-3.8c7.1,0,9,4.4,9,8.5c0,3.9-3,6.2-6.2,7.6c-4.6,2.2-12.4,4-17.9,4.7c-0.3,1.6-0.7,4-0.7,5.9c0,5,2,9,7,9
			c6.3,0,11-4.1,13.8-10.8h1.3L133.3,65.7z M112.3,54.9c4.3-0.4,10.5-2,13.3-3.2c3.3-1.6,5-3.8,5-7c0-3.3-1.7-5.4-4.6-5.4
			C121.6,39.2,115.7,43.2,112.3,54.9z"/>
		<path class="st0" d="M144.2,38.9c3.8-0.4,9-0.9,12.6-2.1l0.2,0.3c-2.6,6-8.5,24.8-10.4,32.1c-0.4,1.7-0.5,2.9,0.6,2.9
			c2.8,0,6.8-4.6,8.6-8.5l1.6,1.7c-3.5,6.7-8.5,10.3-13.1,10.3c-4.4,0-3.9-4.3-2.3-9.2c2.1-6.7,5.7-17.3,7.7-24.2
			c0.3-1.1,0.2-1.5-0.9-1.4c-1.1,0-3.3,0-5.5,0.2L144.2,38.9z M159.8,24.3c-0.2,2.4-2,4.1-4.1,4.1c-1.7,0-3-1.1-2.9-3.3
			c0.1-2.6,2.2-4.3,4.1-4.3C158.9,20.8,159.9,22.1,159.8,24.3z"/>
		<path class="st0" d="M201.4,65.4c-3.5,6.8-8.6,10.4-12.9,10.4c-4.5,0-4.3-4.7-2.2-10.1c2.3-6.4,5.1-13.8,7.3-19.8
			c1-2.8,0.7-5.6-2.4-5.6c-8.5,0-16.8,13.8-20.4,23.4c-1.1,3.1-2.2,6-3.8,11c-2,0.2-3.9,0.4-5.6,0.7c3.9-10.6,8.7-26.7,10-33.1
			c0.2-1,0.1-1.4-0.8-1.4l-5.4,0.1l0.8-2.1c4-0.4,8.4-1,12.2-2.1c-1.5,5-3.2,10.8-4.5,15.4c4.9-7.3,11.4-15.4,20.1-15.4
			c1.6,0,3.2,0.5,4.1,1.3c2.4,2.2,1.5,7,0.3,10.1c-2.2,6.4-5.6,14.6-7.5,21c-0.5,1.7-0.3,2.8,0.7,2.8c2.6,0,6.4-3.9,8.5-8.3
			L201.4,65.4z"/>
		<path class="st0" d="M216.9,39.8c0.6-2,2.1-6.9,2.3-8.2c1.4-0.4,4.4-1.4,5.6-2.1l0.3,0.3c-1.8,5.4-4.4,13.3-6.2,19.4
			c4-5.6,10.2-12.5,17.5-12.5c5.5,0,8,4.4,8,9.7c0,10.4-6.6,23-15.9,27.4c-2.5,1.2-5.1,1.7-7.4,1.7c-3.3,0-6.8-1.1-8.5-3.8
			c-2.3,7.7-4.1,14.9-4.6,17.1c-0.5,2,0.1,2.4,1.4,2.6l5.4,0.5l-0.7,2.1h-6.5c-4,0-9.3,0.2-13.4,0.7l0.7-2.2l3.6-0.6
			c1.9-0.3,2.8-0.9,3.4-2.6c3.7-10.3,9.9-31.6,13.4-43.8c-1.8,1.5-5,3.3-6.8,3.8c-0.3-0.6-0.6-1.2-0.9-1.8
			C211.3,45.9,214.8,43.2,216.9,39.8z M221,51c-3,4.4-6.1,12-6.1,15.9c0,4.3,3.1,6.3,6.7,6.3c3.1,0,6.4-1.7,9.3-5.4
			c4.4-5.3,7.9-14.2,7.9-21.4c0-3.4-1.5-6.3-4.4-6.3C229.6,40.1,224.6,45.6,221,51z"/>
		<path class="st0" d="M259.2,38.3c2.5-9.1,4.9-13.4,8.4-16.8c3.6-3.5,7.4-5.3,12.4-5.3c3.2,0,6.1,0.9,7.7,2.5
			c2.2-0.7,3.9-1.4,5.7-2.1c-1.7,4.1-4.6,12.7-8.6,25.8c-4,13.2-6.9,23.1-7.8,27c-0.3,1.8-0.2,2.6,0.8,2.6c2.4,0,6.5-3.7,8.6-8.5
			l1.6,1.8c-3.5,7-8.7,10.5-13.2,10.5c-4.5,0-3.7-5.1-2.3-9.7c3.9-13.2,9.1-29.6,13-43c-0.4-2-2.6-4.5-7-4.5c-4.5,0-7.7,3-10,8
			c-1.5,3.4-2.6,7.2-3.8,11.6h10.4l-0.9,2.2l-10.3,0.7c-3.2,13.1-7.4,29.4-10.2,37.4c-2.3,7-5,11.4-10.4,14.8
			c-2.5,1.5-4.8,1.9-7.2,1.9c-3.4,0-6.3-2.5-6.3-5c0-1.6,1.2-3.1,2.5-3.3c1-0.3,1.7,0,2.3,1.1c1.2,2.3,2.8,3.7,5.1,3.7
			c3.8,0,5.9-3.6,8.4-11.4c2.3-7.6,6.7-23.8,10.3-39.1l-6.4-0.8l0.9-2.1H259.2z"/>
		<path class="st0" d="M321.4,65.7c-4.3,6.7-11.4,10-17.6,10c-6.9,0-10.5-4.4-10.5-11.7c0-8.5,4-17.9,11-23.3
			c3.2-2.6,6.8-3.8,10.6-3.8c7.1,0,9,4.4,9,8.5c0,3.9-3,6.2-6.2,7.6c-4.6,2.2-12.4,4-17.9,4.7c-0.3,1.6-0.7,4-0.7,5.9c0,5,2,9,7,9
			c6.3,0,11-4.1,13.8-10.8h1.3L321.4,65.7z M300.4,54.9c4.3-0.4,10.5-2,13.3-3.2c3.3-1.6,5-3.8,5-7c0-3.3-1.7-5.4-4.6-5.4
			C309.7,39.2,303.8,43.2,300.4,54.9z"/>
		<path class="st0" d="M355.3,39.5c2.9-2,5-2.9,7.1-2.9c1.7,0,3,1.3,2.9,2c0,0.9-1.7,2.6-2.6,3.2c-1.8-1-4.1-1.4-6.1-0.5
			c0.8,1.4,1.2,3.5,1.2,5.4c0.1,8.7-6,17.3-15.3,17.3c-2.3,0-5-0.8-6.3-1.8c-2.1,0.6-3.5,2-3.5,3.7c0,1.5,1.3,2.9,4.1,3.8
			c3.2,1,7.6,2.4,11.4,3.6c4.5,1.3,8,3.9,8,9.2c0,9.7-10.1,13.3-18.8,13.3c-7,0-16.7-3.5-16.7-11.8c0-5.2,4.6-8.5,9.7-8.5
			c0.9,0,1.6,0.1,2.1,0.3l0.7,1.6c-4.4,0.1-7.8,2.2-7.8,6.2c0,5,6,9.3,14,9.3c7.7,0,11.7-3.8,11.7-8.3c0-2.9-1.8-5.1-5.2-6.2
			c-3.6-1.2-7.4-2.6-10.8-3.6c-3.7-1-7.1-3.1-7.1-7.3c0-3.2,2.5-5.7,6.3-6.9c-1.5-1.7-2.3-4-2.3-6.7c0-8.2,6.5-17.1,15.5-17.1
			C350.7,36.8,353.2,37.5,355.3,39.5z M341.6,42.3c-2.6,3.4-4.2,8.5-4.2,12.8c0,4.8,2.6,6.4,5.1,6.4c2.2,0,4.1-0.9,5.6-2.6
			c2.8-3.3,4.5-9,4.5-13.4c0-4.3-2-6.5-5-6.5C345.3,39.1,343.4,40,341.6,42.3z"/>
		<path class="st0" d="M393,65.7c-4.3,6.7-11.4,10-17.6,10c-6.9,0-10.5-4.4-10.5-11.7c0-8.5,4-17.9,11-23.3
			c3.2-2.6,6.8-3.8,10.6-3.8c7.1,0,9,4.4,9,8.5c0,3.9-3,6.2-6.2,7.6c-4.6,2.2-12.4,4-17.9,4.7c-0.3,1.6-0.7,4-0.7,5.9c0,5,2,9,7,9
			c6.3,0,11-4.1,13.8-10.8h1.3L393,65.7z M372,54.9c4.3-0.4,10.5-2,13.3-3.2c3.3-1.6,5-3.8,5-7c0-3.3-1.7-5.4-4.6-5.4
			C381.3,39.2,375.4,43.2,372,54.9z"/>
	</g>
	<g>
		<path class="st0" d="M164.7,125.8c3.8-0.4,9-0.9,12.6-2.1l0.2,0.3c-2.6,6-8.5,24.8-10.4,32.1c-0.4,1.7-0.5,2.9,0.6,2.9
			c2.8,0,6.8-4.6,8.6-8.5l1.6,1.7c-3.5,6.7-8.5,10.3-13.1,10.3c-4.4,0-3.9-4.3-2.3-9.2c2.1-6.7,5.7-17.3,7.7-24.2
			c0.3-1.1,0.2-1.5-0.9-1.4c-1.1,0-3.3,0-5.5,0.2L164.7,125.8z M180.3,111.2c-0.2,2.4-2,4.1-4.1,4.1c-1.7,0-3-1.1-2.9-3.3
			c0.1-2.6,2.2-4.3,4.1-4.3C179.5,107.7,180.4,109.1,180.3,111.2z"/>
		<path class="st0" d="M211.8,152.6c-4.3,6.7-11.4,10-17.6,10c-6.9,0-10.5-4.4-10.5-11.7c0-8.5,4-17.9,11-23.3
			c3.2-2.6,6.8-3.8,10.6-3.8c7.1,0,9,4.4,9,8.5c0,3.9-3,6.2-6.2,7.6c-4.6,2.2-12.4,4-17.9,4.7c-0.3,1.6-0.7,4-0.7,5.9c0,5,2,9,7,9
			c6.3,0,11-4.1,13.8-10.9h1.3L211.8,152.6z M190.7,141.8c4.3-0.4,10.5-2,13.3-3.2c3.3-1.6,5-3.8,5-7c0-3.3-1.7-5.4-4.6-5.4
			C200.1,126.2,194.2,130.1,190.7,141.8z"/>
		<path class="st0" d="M258.7,152.4c-3.1,6.3-7.6,10.4-12.4,10.4c-4.4,0-3.8-5.3-2.5-9.6c0.3-0.9,0.5-1.9,0.8-2.8
			c-3.8,5.7-10.2,12.2-18,12.2c-5.1,0-7.7-3.8-7.7-9.2c0-9.1,5.3-19.8,13-25.6c3-2.4,6.7-4,11.1-4c3.8,0,6.7,1.2,8,3.8
			c3.4-10.8,4.9-16.1,5.6-18.9c0.3-1.3,0.1-1.6-0.9-1.6c-1.4,0-3.1-0.1-5.6-0.1l0.8-2.1c4.3-0.2,10.5-0.9,13.2-1.5
			c-2.2,5.5-6.8,19.9-11.4,36.4c-2.3,8-3.6,12.8-4.3,16c-0.3,1.5-0.6,3.5,0.7,3.5c2.6,0,6.2-4.4,8.2-8.4L258.7,152.4z M229,159.2
			c4.1,0,8.5-3.2,13.1-9.9c2.9-4.1,6.9-13.1,6.9-17.3c0-2.6-1.5-5.7-5.7-5.7c-3.2,0-6.2,1.3-9.4,4.5c-5.1,5.4-9.1,14.4-9.1,22.4
			C224.7,156.5,226.1,159.2,229,159.2z"/>
		<path class="st0" d="M292.2,152.6c-4.3,6.7-11.4,10-17.6,10c-6.9,0-10.5-4.4-10.5-11.7c0-8.5,4-17.9,11-23.3
			c3.2-2.6,6.8-3.8,10.6-3.8c7.1,0,9,4.4,9,8.5c0,3.9-3,6.2-6.2,7.6c-4.6,2.2-12.4,4-17.9,4.7c-0.3,1.6-0.7,4-0.7,5.9c0,5,2,9,7,9
			c6.3,0,11-4.1,13.8-10.9h1.3L292.2,152.6z M271.2,141.8c4.3-0.4,10.5-2,13.3-3.2c3.3-1.6,5-3.8,5-7c0-3.3-1.7-5.4-4.6-5.4
			C280.5,126.2,274.6,130.1,271.2,141.8z"/>
		<path class="st0" d="M302.1,125.8c3.8-0.3,8.4-1,11.7-2.1c-0.6,3.3-2.6,10.7-3.6,14.7h0.3c5-9.4,9.3-14.7,14.4-14.7
			c3,0,3.9,2.4,3.9,3.9c0,3.2-2.1,4.4-3.5,4.4c-1,0-1.7-0.6-2-1.7s-0.7-1.9-1.9-1.9c-3.6,0-8.7,9.4-11.6,16.3
			c-2,4.8-3.9,10.3-5.9,16.8c-2.1,0.1-4.1,0.3-5.7,0.7c3.9-11,8.5-26.8,9.1-33c0.1-0.9-0.3-1.4-1-1.4c-1,0-3.6,0-5.1,0.1
			L302.1,125.8z"/>
		<path class="st0" d="M332.7,125.8c3.8-0.3,8.4-1,11.7-2.1c-0.6,3.3-2.6,10.7-3.6,14.7h0.3c5-9.4,9.3-14.7,14.4-14.7
			c3,0,3.9,2.4,3.9,3.9c0,3.2-2.1,4.4-3.5,4.4c-1,0-1.7-0.6-2-1.7s-0.7-1.9-1.9-1.9c-3.6,0-8.7,9.4-11.6,16.3
			c-2,4.8-3.9,10.3-5.9,16.8c-2.1,0.1-4.1,0.3-5.7,0.7c3.9-11,8.5-26.8,9.1-33c0.1-0.9-0.3-1.4-1-1.4c-1,0-3.6,0-5.1,0.1
			L332.7,125.8z"/>
		<path class="st0" d="M367.1,104.8c2.1,0,9.7-0.6,13-1.5c-1.3,3.2-5.6,16.6-10.5,33.7c4.5-6.1,11.6-13.2,19.5-13.2
			c2.1,0,3.2,0.7,4.2,1.5c2.1,2.1,1.1,6.9,0.2,9.7c-2.7,7.9-5.6,15.8-7.3,20.9c-0.4,1.5-0.5,3,0.7,3c2.6,0,6.3-4.1,8.4-8.4l1.6,1.7
			c-3.5,6.8-8.1,10.4-12.6,10.4c-4.6,0-4.3-5-2.4-10.2c2.9-8.4,5.7-16.1,7.1-20.3c0.6-2.1,0.9-5.2-2.5-5.2c-3.7,0-9,3.4-14.2,10.8
			c-3.2,4.4-4.9,8.5-6.4,13.1c-1,3.2-2,6.3-3.3,10.9c-1.2,0.1-3.5,0.3-5.6,0.5c2.1-6.7,6-18.6,9.9-32.6c3.8-13.5,5.2-18.2,5.9-21.3
			c0.2-0.9,0-1.4-1.2-1.4h-5.3L367.1,104.8z"/>
		<path class="st0" d="M430.8,152.6c-4.3,6.7-11.4,10-17.6,10c-6.9,0-10.5-4.4-10.5-11.7c0-8.5,4-17.9,11-23.3
			c3.2-2.6,6.8-3.8,10.6-3.8c7.1,0,9,4.4,9,8.5c0,3.9-3,6.2-6.2,7.6c-4.6,2.2-12.4,4-17.9,4.7c-0.3,1.6-0.7,4-0.7,5.9c0,5,2,9,7,9
			c6.3,0,11-4.1,13.8-10.9h1.3L430.8,152.6z M409.8,141.8c4.3-0.4,10.5-2,13.3-3.2c3.3-1.6,5-3.8,5-7c0-3.3-1.7-5.4-4.6-5.4
			C419.1,126.2,413.2,130.1,409.8,141.8z"/>
		<path class="st0" d="M441.7,125.8c3.8-0.4,9-0.9,12.6-2.1l0.2,0.3c-2.6,6-8.5,24.8-10.4,32.1c-0.4,1.7-0.5,2.9,0.6,2.9
			c2.8,0,6.8-4.6,8.6-8.5l1.6,1.7c-3.5,6.7-8.5,10.3-13.1,10.3c-4.4,0-3.9-4.3-2.3-9.2c2.1-6.7,5.7-17.3,7.7-24.2
			c0.3-1.1,0.2-1.5-0.9-1.4c-1.1,0-3.3,0-5.5,0.2L441.7,125.8z M457.3,111.2c-0.2,2.4-2,4.1-4.1,4.1c-1.7,0-3-1.1-2.9-3.3
			c0.1-2.6,2.2-4.3,4.1-4.3C456.4,107.7,457.4,109.1,457.3,111.2z"/>
		<path class="st0" d="M498.9,152.3c-3.5,6.8-8.6,10.4-12.9,10.4c-4.5,0-4.3-4.7-2.2-10.1c2.3-6.4,5.1-13.8,7.3-19.8
			c1-2.8,0.7-5.6-2.4-5.6c-8.5,0-16.8,13.8-20.4,23.4c-1.1,3.1-2.2,6-3.8,11c-2,0.2-3.9,0.4-5.6,0.7c3.9-10.6,8.7-26.7,10-33.1
			c0.2-1,0.1-1.4-0.8-1.4l-5.4,0.1l0.8-2.1c4-0.4,8.4-1,12.2-2.1c-1.5,5-3.2,10.9-4.5,15.4c4.9-7.3,11.4-15.4,20.1-15.4
			c1.6,0,3.2,0.5,4.1,1.3c2.4,2.2,1.5,7,0.3,10.1c-2.2,6.4-5.6,14.6-7.5,21c-0.5,1.7-0.3,2.8,0.7,2.8c2.6,0,6.4-3.9,8.5-8.3
			L498.9,152.3z"/>
	</g>
	<g>
		<path class="st1" d="M155.5,97c0.4-3-0.4-3.9-4.3-4.3l-6.4-0.5l1.3-3.5c3.9-0.1,9.3,0.5,12.9,0.5c4.4,0,11.3-0.7,14.6-0.5
			l-1.2,3.5c-2.1,0-4.2,0.3-6.1,0.8c-1.8,0.3-3.4,1.2-4.4,3.8c-3.4,8.6-14.3,46.8-20.6,75c-2.3,0-5,0.8-6.6,1.4
			c-5.1-16.4-17.5-49.5-25.9-72.7c-6.9,26.3-13.6,51.5-15.5,60.7c-0.9,4.4,0,5.7,2.3,6.3c2.1,0.4,5.3,0.9,8.7,1l-1.2,3.4
			c-4.7,0-10.7-0.4-16-0.4c-4,0-9.3,0.1-13.4,0.4l1.3-3.4c1.7,0,4.8-0.7,6.5-0.9c2.3-0.4,3.7-1.8,5.2-5.6
			c2.7-6.4,12.9-42.6,18.8-64.4c0.9-3.3-0.5-4-3.5-4.4l-8-0.9l1.4-3.5c2.6,0,7.6,0.5,11.9,0.5c3,0,5.2-0.3,6.8-0.4
			c7.2,19.6,18.3,49.5,25.8,69.4C149.5,122.8,154.5,104.2,155.5,97z"/>
	</g>
	<g>
		<path class="st1" d="M13.5,74.1c-1,4.4-2.4,11.1-2.6,15.9c0,13.3,8.9,18.5,21.9,18.5c13.8,0,24.1-9.1,24.1-23.6
			c0-6.2-2.2-10.4-6.3-14.3c-4.3-4.4-12.8-11.6-19-17.1c-7.2-5.8-11.4-12.5-11.4-22c0-10.6,4.6-19,11.8-24.6C37.4,2.4,44.6,0,53.1,0
			c10.8,0,17.9,4.3,21.2,8.9l5.5-8l3.4,2.1c-4.6,10.3-8.5,22.9-10.8,31.3L68,33.5c5-18.4-2.4-28.7-16.1-28.7s-20.3,9.7-20.3,21.7
			c-0.2,6.8,2.7,12.6,8.7,17.6C48,51.6,54,56.6,58.1,60C64.7,65.3,69,71.2,69,80.1c0,8.4-2.9,15.9-8.2,21.7
			c-7.5,8.2-17.9,11.8-30.1,11.8c-11.6,0-23.1-4.3-30.8-10.4c3.1-6.8,6.8-20.5,8.7-28L13.5,74.1z"/>
	</g>
</g>
</svg>
